<svg xmlns="http://www.w3.org/2000/svg" xmlns:xlink="http://www.w3.org/1999/xlink" width="500" zoomAndPan="magnify" viewBox="0 0 375 374.999991" height="500" preserveAspectRatio="xMidYMid meet" version="1.0"><defs><clipPath id="c508d61ba7"><path d="M 0 0 L 374.511719 0 L 374.511719 374.511719 L 0 374.511719 Z M 0 0 " clip-rule="nonzero"/></clipPath><clipPath id="5decb6d513"><path d="M 100.882812 0 L 274.113281 0 C 275.765625 0 277.417969 0.0390625 279.066406 0.121094 C 280.714844 0.203125 282.359375 0.324219 284.003906 0.484375 C 285.644531 0.648438 287.285156 0.851562 288.917969 1.09375 C 290.550781 1.335938 292.175781 1.617188 293.796875 1.9375 C 295.414062 2.261719 297.027344 2.621094 298.628906 3.023438 C 300.230469 3.425781 301.820312 3.863281 303.398438 4.34375 C 304.980469 4.824219 306.546875 5.339844 308.101562 5.898438 C 309.65625 6.453125 311.195312 7.046875 312.722656 7.679688 C 314.246094 8.3125 315.757812 8.980469 317.25 9.6875 C 318.742188 10.390625 320.214844 11.132812 321.671875 11.914062 C 323.128906 12.691406 324.5625 13.503906 325.980469 14.351562 C 327.394531 15.203125 328.789062 16.085938 330.164062 17.003906 C 331.535156 17.917969 332.886719 18.871094 334.210938 19.851562 C 335.539062 20.835938 336.839844 21.851562 338.117188 22.898438 C 339.390625 23.945312 340.640625 25.023438 341.863281 26.132812 C 343.089844 27.242188 344.285156 28.382812 345.449219 29.546875 C 346.617188 30.714844 347.757812 31.910156 348.867188 33.132812 C 349.972656 34.359375 351.050781 35.609375 352.101562 36.882812 C 353.148438 38.160156 354.164062 39.460938 355.144531 40.789062 C 356.128906 42.113281 357.078125 43.464844 357.996094 44.835938 C 358.914062 46.207031 359.796875 47.601562 360.644531 49.019531 C 361.496094 50.4375 362.308594 51.871094 363.085938 53.328125 C 363.867188 54.785156 364.609375 56.257812 365.3125 57.75 C 366.019531 59.242188 366.6875 60.753906 367.320312 62.277344 C 367.953125 63.804688 368.546875 65.34375 369.101562 66.898438 C 369.660156 68.453125 370.175781 70.019531 370.65625 71.597656 C 371.132812 73.179688 371.574219 74.769531 371.976562 76.371094 C 372.378906 77.972656 372.738281 79.582031 373.0625 81.203125 C 373.382812 82.820312 373.664062 84.449219 373.90625 86.082031 C 374.148438 87.714844 374.351562 89.351562 374.511719 90.996094 C 374.675781 92.640625 374.796875 94.285156 374.878906 95.933594 C 374.957031 97.582031 375 99.234375 375 100.882812 L 375 274.113281 C 375 275.765625 374.957031 277.417969 374.878906 279.066406 C 374.796875 280.714844 374.675781 282.359375 374.511719 284.003906 C 374.351562 285.644531 374.148438 287.285156 373.90625 288.917969 C 373.664062 290.550781 373.382812 292.175781 373.0625 293.796875 C 372.738281 295.414062 372.378906 297.027344 371.976562 298.628906 C 371.574219 300.230469 371.132812 301.820312 370.65625 303.398438 C 370.175781 304.980469 369.660156 306.546875 369.101562 308.101562 C 368.546875 309.65625 367.953125 311.195312 367.320312 312.722656 C 366.6875 314.246094 366.019531 315.757812 365.3125 317.25 C 364.609375 318.742188 363.867188 320.214844 363.085938 321.671875 C 362.308594 323.128906 361.496094 324.5625 360.644531 325.980469 C 359.796875 327.394531 358.914062 328.789062 357.996094 330.164062 C 357.078125 331.535156 356.128906 332.886719 355.144531 334.210938 C 354.164062 335.539062 353.148438 336.839844 352.101562 338.117188 C 351.050781 339.390625 349.972656 340.640625 348.867188 341.863281 C 347.757812 343.089844 346.617188 344.285156 345.449219 345.449219 C 344.285156 346.617188 343.089844 347.757812 341.863281 348.867188 C 340.640625 349.972656 339.390625 351.050781 338.117188 352.101562 C 336.839844 353.148438 335.539062 354.164062 334.210938 355.144531 C 332.886719 356.128906 331.535156 357.078125 330.164062 357.996094 C 328.789062 358.914062 327.394531 359.796875 325.980469 360.644531 C 324.5625 361.496094 323.128906 362.308594 321.671875 363.085938 C 320.214844 363.867188 318.742188 364.605469 317.25 365.3125 C 315.757812 366.019531 314.246094 366.6875 312.722656 367.320312 C 311.195312 367.953125 309.65625 368.546875 308.101562 369.101562 C 306.546875 369.660156 304.980469 370.175781 303.398438 370.65625 C 301.820312 371.132812 300.230469 371.574219 298.628906 371.976562 C 297.027344 372.378906 295.414062 372.738281 293.796875 373.0625 C 292.175781 373.382812 290.550781 373.664062 288.917969 373.90625 C 287.285156 374.148438 285.648438 374.351562 284.003906 374.511719 C 282.359375 374.675781 280.714844 374.796875 279.066406 374.878906 C 277.417969 374.957031 275.765625 375 274.113281 375 L 100.882812 375 C 99.234375 375 97.582031 374.957031 95.933594 374.878906 C 94.285156 374.796875 92.640625 374.675781 90.996094 374.511719 C 89.351562 374.351562 87.714844 374.148438 86.082031 373.90625 C 84.449219 373.664062 82.820312 373.382812 81.203125 373.0625 C 79.582031 372.738281 77.972656 372.378906 76.371094 371.976562 C 74.769531 371.574219 73.179688 371.132812 71.597656 370.65625 C 70.019531 370.175781 68.453125 369.660156 66.898438 369.101562 C 65.34375 368.546875 63.804688 367.953125 62.277344 367.320312 C 60.753906 366.6875 59.242188 366.019531 57.75 365.3125 C 56.257812 364.605469 54.785156 363.867188 53.328125 363.085938 C 51.871094 362.308594 50.4375 361.496094 49.019531 360.644531 C 47.601562 359.796875 46.207031 358.914062 44.835938 357.996094 C 43.464844 357.078125 42.113281 356.128906 40.789062 355.144531 C 39.460938 354.164062 38.160156 353.148438 36.882812 352.101562 C 35.609375 351.050781 34.359375 349.972656 33.132812 348.867188 C 31.910156 347.757812 30.714844 346.617188 29.546875 345.449219 C 28.382812 344.285156 27.242188 343.089844 26.132812 341.863281 C 25.023438 340.640625 23.945312 339.390625 22.898438 338.117188 C 21.851562 336.839844 20.835938 335.539062 19.851562 334.210938 C 18.871094 332.886719 17.917969 331.535156 17.003906 330.164062 C 16.085938 328.789062 15.203125 327.394531 14.351562 325.980469 C 13.503906 324.5625 12.691406 323.128906 11.914062 321.671875 C 11.132812 320.214844 10.390625 318.742188 9.6875 317.25 C 8.980469 315.757812 8.3125 314.246094 7.679688 312.722656 C 7.046875 311.195312 6.453125 309.65625 5.898438 308.101562 C 5.339844 306.546875 4.824219 304.980469 4.34375 303.398438 C 3.863281 301.820312 3.425781 300.230469 3.023438 298.628906 C 2.621094 297.027344 2.261719 295.414062 1.9375 293.796875 C 1.617188 292.175781 1.335938 290.550781 1.09375 288.917969 C 0.851562 287.285156 0.648438 285.648438 0.484375 284.003906 C 0.324219 282.359375 0.203125 280.714844 0.121094 279.066406 C 0.0390625 277.417969 0 275.765625 0 274.113281 L 0 100.882812 C 0 99.234375 0.0390625 97.582031 0.121094 95.933594 C 0.203125 94.285156 0.324219 92.640625 0.484375 90.996094 C 0.648438 89.351562 0.851562 87.714844 1.09375 86.082031 C 1.335938 84.449219 1.617188 82.820312 1.9375 81.203125 C 2.261719 79.582031 2.621094 77.972656 3.023438 76.371094 C 3.425781 74.769531 3.863281 73.179688 4.34375 71.597656 C 4.824219 70.019531 5.339844 68.453125 5.898438 66.898438 C 6.453125 65.34375 7.046875 63.804688 7.679688 62.277344 C 8.3125 60.753906 8.980469 59.242188 9.6875 57.75 C 10.390625 56.257812 11.132812 54.785156 11.914062 53.328125 C 12.691406 51.871094 13.503906 50.4375 14.351562 49.019531 C 15.203125 47.601562 16.085938 46.207031 17.003906 44.835938 C 17.917969 43.464844 18.871094 42.113281 19.851562 40.789062 C 20.835938 39.460938 21.851562 38.160156 22.898438 36.882812 C 23.945312 35.609375 25.023438 34.359375 26.132812 33.132812 C 27.242188 31.910156 28.382812 30.714844 29.546875 29.546875 C 30.714844 28.382812 31.910156 27.242188 33.132812 26.132812 C 34.359375 25.023438 35.609375 23.945312 36.882812 22.898438 C 38.160156 21.851562 39.460938 20.835938 40.789062 19.851562 C 42.113281 18.871094 43.464844 17.917969 44.835938 17.003906 C 46.207031 16.085938 47.601562 15.203125 49.019531 14.351562 C 50.4375 13.503906 51.871094 12.691406 53.328125 11.914062 C 54.785156 11.132812 56.257812 10.390625 57.75 9.6875 C 59.242188 8.980469 60.753906 8.3125 62.277344 7.679688 C 63.804688 7.046875 65.34375 6.453125 66.898438 5.898438 C 68.453125 5.339844 70.019531 4.824219 71.597656 4.34375 C 73.179688 3.863281 74.769531 3.425781 76.371094 3.023438 C 77.972656 2.621094 79.582031 2.261719 81.203125 1.9375 C 82.820312 1.617188 84.449219 1.335938 86.082031 1.09375 C 87.714844 0.851562 89.351562 0.648438 90.996094 0.484375 C 92.640625 0.324219 94.285156 0.203125 95.933594 0.121094 C 97.582031 0.0390625 99.234375 0 100.882812 0 Z M 100.882812 0 " clip-rule="nonzero"/></clipPath><linearGradient x1="21.457465" gradientTransform="matrix(0, -1.58898, 1.58898, 0, 0.0000045, 374.99933)" y1="-15.316493" x2="214.503126" gradientUnits="userSpaceOnUse" y2="251.26037" id="4678679d30"><stop stop-opacity="1" stop-color="rgb(19.764709%, 21.5271%, 22.822571%)" offset="0"/><stop stop-opacity="1" stop-color="rgb(20.025635%, 21.826172%, 23.052979%)" offset="0.00390625"/><stop stop-opacity="1" stop-color="rgb(20.288086%, 22.125244%, 23.284912%)" offset="0.0078125"/><stop stop-opacity="1" stop-color="rgb(20.549011%, 22.422791%, 23.51532%)" offset="0.0117188"/><stop stop-opacity="1" stop-color="rgb(20.809937%, 22.721863%, 23.745728%)" offset="0.015625"/><stop stop-opacity="1" stop-color="rgb(21.070862%, 23.020935%, 23.976135%)" offset="0.0195313"/><stop stop-opacity="1" stop-color="rgb(21.331787%, 23.320007%, 24.208069%)" offset="0.0234375"/><stop stop-opacity="1" stop-color="rgb(21.592712%, 23.61908%, 24.438477%)" offset="0.0273438"/><stop stop-opacity="1" stop-color="rgb(21.853638%, 23.918152%, 24.668884%)" offset="0.03125"/><stop stop-opacity="1" stop-color="rgb(22.114563%, 24.215698%, 24.899292%)" offset="0.0351562"/><stop stop-opacity="1" stop-color="rgb(22.375488%, 24.514771%, 25.131226%)" offset="0.0390625"/><stop stop-opacity="1" stop-color="rgb(22.636414%, 24.813843%, 25.361633%)" offset="0.0429688"/><stop stop-opacity="1" stop-color="rgb(22.897339%, 25.112915%, 25.592041%)" offset="0.046875"/><stop stop-opacity="1" stop-color="rgb(23.158264%, 25.411987%, 25.822449%)" offset="0.0507812"/><stop stop-opacity="1" stop-color="rgb(23.419189%, 25.71106%, 26.054382%)" offset="0.0546875"/><stop stop-opacity="1" stop-color="rgb(23.680115%, 26.010132%, 26.28479%)" offset="0.0585937"/><stop stop-opacity="1" stop-color="rgb(23.94104%, 26.309204%, 26.515198%)" offset="0.0625"/><stop stop-opacity="1" stop-color="rgb(24.201965%, 26.60675%, 26.745605%)" offset="0.0664063"/><stop stop-opacity="1" stop-color="rgb(24.462891%, 26.905823%, 26.976013%)" offset="0.0703125"/><stop stop-opacity="1" stop-color="rgb(24.723816%, 27.204895%, 27.206421%)" offset="0.0742188"/><stop stop-opacity="1" stop-color="rgb(24.984741%, 27.503967%, 27.438354%)" offset="0.078125"/><stop stop-opacity="1" stop-color="rgb(25.245667%, 27.80304%, 27.668762%)" offset="0.0820312"/><stop stop-opacity="1" stop-color="rgb(25.506592%, 28.102112%, 27.89917%)" offset="0.0859375"/><stop stop-opacity="1" stop-color="rgb(25.767517%, 28.399658%, 28.129578%)" offset="0.0898438"/><stop stop-opacity="1" stop-color="rgb(26.029968%, 28.69873%, 28.361511%)" offset="0.09375"/><stop stop-opacity="1" stop-color="rgb(26.290894%, 28.997803%, 28.591919%)" offset="0.0976563"/><stop stop-opacity="1" stop-color="rgb(26.551819%, 29.296875%, 28.822327%)" offset="0.101563"/><stop stop-opacity="1" stop-color="rgb(26.812744%, 29.595947%, 29.052734%)" offset="0.105469"/><stop stop-opacity="1" stop-color="rgb(27.073669%, 29.89502%, 29.284668%)" offset="0.109375"/><stop stop-opacity="1" stop-color="rgb(27.334595%, 30.194092%, 29.515076%)" offset="0.113281"/><stop stop-opacity="1" stop-color="rgb(27.59552%, 30.493164%, 29.745483%)" offset="0.117188"/><stop stop-opacity="1" stop-color="rgb(27.856445%, 30.79071%, 29.975891%)" offset="0.121094"/><stop stop-opacity="1" stop-color="rgb(28.117371%, 31.089783%, 30.207825%)" offset="0.125"/><stop stop-opacity="1" stop-color="rgb(28.378296%, 31.388855%, 30.438232%)" offset="0.128906"/><stop stop-opacity="1" stop-color="rgb(28.639221%, 31.687927%, 30.66864%)" offset="0.132812"/><stop stop-opacity="1" stop-color="rgb(28.900146%, 31.987%, 30.899048%)" offset="0.136719"/><stop stop-opacity="1" stop-color="rgb(29.161072%, 32.286072%, 31.129456%)" offset="0.140625"/><stop stop-opacity="1" stop-color="rgb(29.421997%, 32.583618%, 31.359863%)" offset="0.144531"/><stop stop-opacity="1" stop-color="rgb(29.682922%, 32.88269%, 31.591797%)" offset="0.148438"/><stop stop-opacity="1" stop-color="rgb(29.943848%, 33.181763%, 31.822205%)" offset="0.152344"/><stop stop-opacity="1" stop-color="rgb(30.204773%, 33.480835%, 32.052612%)" offset="0.15625"/><stop stop-opacity="1" stop-color="rgb(30.465698%, 33.779907%, 32.28302%)" offset="0.160156"/><stop stop-opacity="1" stop-color="rgb(30.726624%, 34.078979%, 32.514954%)" offset="0.164063"/><stop stop-opacity="1" stop-color="rgb(30.987549%, 34.378052%, 32.745361%)" offset="0.167969"/><stop stop-opacity="1" stop-color="rgb(31.248474%, 34.677124%, 32.975769%)" offset="0.171875"/><stop stop-opacity="1" stop-color="rgb(31.509399%, 34.97467%, 33.206177%)" offset="0.175781"/><stop stop-opacity="1" stop-color="rgb(31.771851%, 35.273743%, 33.43811%)" offset="0.179688"/><stop stop-opacity="1" stop-color="rgb(32.032776%, 35.572815%, 33.668518%)" offset="0.183594"/><stop stop-opacity="1" stop-color="rgb(32.293701%, 35.871887%, 33.898926%)" offset="0.1875"/><stop stop-opacity="1" stop-color="rgb(32.554626%, 36.170959%, 34.129333%)" offset="0.191406"/><stop stop-opacity="1" stop-color="rgb(32.815552%, 36.470032%, 34.361267%)" offset="0.195312"/><stop stop-opacity="1" stop-color="rgb(33.076477%, 36.767578%, 34.591675%)" offset="0.199219"/><stop stop-opacity="1" stop-color="rgb(33.337402%, 37.06665%, 34.822083%)" offset="0.203125"/><stop stop-opacity="1" stop-color="rgb(33.598328%, 37.365723%, 35.05249%)" offset="0.207031"/><stop stop-opacity="1" stop-color="rgb(33.859253%, 37.664795%, 35.282898%)" offset="0.210938"/><stop stop-opacity="1" stop-color="rgb(34.120178%, 37.963867%, 35.513306%)" offset="0.214844"/><stop stop-opacity="1" stop-color="rgb(34.381104%, 38.262939%, 35.745239%)" offset="0.21875"/><stop stop-opacity="1" stop-color="rgb(34.642029%, 38.562012%, 35.975647%)" offset="0.222656"/><stop stop-opacity="1" stop-color="rgb(34.902954%, 38.861084%, 36.206055%)" offset="0.226563"/><stop stop-opacity="1" stop-color="rgb(35.163879%, 39.15863%, 36.436462%)" offset="0.230469"/><stop stop-opacity="1" stop-color="rgb(35.424805%, 39.457703%, 36.668396%)" offset="0.234375"/><stop stop-opacity="1" stop-color="rgb(35.68573%, 39.756775%, 36.898804%)" offset="0.238281"/><stop stop-opacity="1" stop-color="rgb(35.946655%, 40.055847%, 37.129211%)" offset="0.242188"/><stop stop-opacity="1" stop-color="rgb(36.207581%, 40.354919%, 37.359619%)" offset="0.246094"/><stop stop-opacity="1" stop-color="rgb(36.468506%, 40.653992%, 37.591553%)" offset="0.25"/><stop stop-opacity="1" stop-color="rgb(36.729431%, 40.951538%, 37.82196%)" offset="0.253906"/><stop stop-opacity="1" stop-color="rgb(36.990356%, 41.25061%, 38.052368%)" offset="0.257813"/><stop stop-opacity="1" stop-color="rgb(37.251282%, 41.549683%, 38.282776%)" offset="0.261719"/><stop stop-opacity="1" stop-color="rgb(37.512207%, 41.848755%, 38.514709%)" offset="0.265625"/><stop stop-opacity="1" stop-color="rgb(37.773132%, 42.147827%, 38.745117%)" offset="0.269531"/><stop stop-opacity="1" stop-color="rgb(38.035583%, 42.446899%, 38.975525%)" offset="0.273438"/><stop stop-opacity="1" stop-color="rgb(38.296509%, 42.745972%, 39.205933%)" offset="0.277344"/><stop stop-opacity="1" stop-color="rgb(38.557434%, 43.045044%, 39.437866%)" offset="0.28125"/><stop stop-opacity="1" stop-color="rgb(38.818359%, 43.34259%, 39.668274%)" offset="0.285156"/><stop stop-opacity="1" stop-color="rgb(39.079285%, 43.641663%, 39.898682%)" offset="0.289062"/><stop stop-opacity="1" stop-color="rgb(39.34021%, 43.940735%, 40.129089%)" offset="0.292969"/><stop stop-opacity="1" stop-color="rgb(39.601135%, 44.239807%, 40.359497%)" offset="0.296875"/><stop stop-opacity="1" stop-color="rgb(39.862061%, 44.538879%, 40.589905%)" offset="0.300781"/><stop stop-opacity="1" stop-color="rgb(40.122986%, 44.837952%, 40.821838%)" offset="0.304688"/><stop stop-opacity="1" stop-color="rgb(40.383911%, 45.135498%, 41.052246%)" offset="0.308594"/><stop stop-opacity="1" stop-color="rgb(40.644836%, 45.43457%, 41.282654%)" offset="0.3125"/><stop stop-opacity="1" stop-color="rgb(40.905762%, 45.733643%, 41.513062%)" offset="0.316406"/><stop stop-opacity="1" stop-color="rgb(41.166687%, 46.032715%, 41.744995%)" offset="0.320313"/><stop stop-opacity="1" stop-color="rgb(41.427612%, 46.331787%, 41.975403%)" offset="0.324219"/><stop stop-opacity="1" stop-color="rgb(41.688538%, 46.630859%, 42.205811%)" offset="0.328125"/><stop stop-opacity="1" stop-color="rgb(41.949463%, 46.929932%, 42.436218%)" offset="0.332031"/><stop stop-opacity="1" stop-color="rgb(42.210388%, 47.229004%, 42.668152%)" offset="0.335938"/><stop stop-opacity="1" stop-color="rgb(42.471313%, 47.52655%, 42.89856%)" offset="0.339844"/><stop stop-opacity="1" stop-color="rgb(42.732239%, 47.825623%, 43.128967%)" offset="0.34375"/><stop stop-opacity="1" stop-color="rgb(42.993164%, 48.124695%, 43.359375%)" offset="0.347656"/><stop stop-opacity="1" stop-color="rgb(43.254089%, 48.423767%, 43.591309%)" offset="0.351563"/><stop stop-opacity="1" stop-color="rgb(43.515015%, 48.722839%, 43.821716%)" offset="0.355469"/><stop stop-opacity="1" stop-color="rgb(43.777466%, 49.021912%, 44.052124%)" offset="0.359375"/><stop stop-opacity="1" stop-color="rgb(44.038391%, 49.319458%, 44.282532%)" offset="0.363281"/><stop stop-opacity="1" stop-color="rgb(44.299316%, 49.61853%, 44.512939%)" offset="0.367188"/><stop stop-opacity="1" stop-color="rgb(44.560242%, 49.917603%, 44.743347%)" offset="0.371094"/><stop stop-opacity="1" stop-color="rgb(44.821167%, 50.216675%, 44.975281%)" offset="0.375"/><stop stop-opacity="1" stop-color="rgb(45.082092%, 50.515747%, 45.205688%)" offset="0.378906"/><stop stop-opacity="1" stop-color="rgb(45.343018%, 50.814819%, 45.436096%)" offset="0.382813"/><stop stop-opacity="1" stop-color="rgb(45.603943%, 51.113892%, 45.666504%)" offset="0.386719"/><stop stop-opacity="1" stop-color="rgb(45.864868%, 51.412964%, 45.898438%)" offset="0.390625"/><stop stop-opacity="1" stop-color="rgb(46.125793%, 51.71051%, 46.128845%)" offset="0.394531"/><stop stop-opacity="1" stop-color="rgb(46.386719%, 52.009583%, 46.359253%)" offset="0.398438"/><stop stop-opacity="1" stop-color="rgb(46.647644%, 52.308655%, 46.589661%)" offset="0.402344"/><stop stop-opacity="1" stop-color="rgb(46.908569%, 52.607727%, 46.821594%)" offset="0.40625"/><stop stop-opacity="1" stop-color="rgb(47.169495%, 52.906799%, 47.052002%)" offset="0.410156"/><stop stop-opacity="1" stop-color="rgb(47.43042%, 53.205872%, 47.28241%)" offset="0.414063"/><stop stop-opacity="1" stop-color="rgb(47.691345%, 53.503418%, 47.512817%)" offset="0.417969"/><stop stop-opacity="1" stop-color="rgb(47.952271%, 53.80249%, 47.744751%)" offset="0.421875"/><stop stop-opacity="1" stop-color="rgb(48.213196%, 54.101562%, 47.975159%)" offset="0.425781"/><stop stop-opacity="1" stop-color="rgb(48.474121%, 54.400635%, 48.205566%)" offset="0.429688"/><stop stop-opacity="1" stop-color="rgb(48.735046%, 54.699707%, 48.435974%)" offset="0.433594"/><stop stop-opacity="1" stop-color="rgb(48.995972%, 54.998779%, 48.666382%)" offset="0.4375"/><stop stop-opacity="1" stop-color="rgb(49.256897%, 55.297852%, 48.89679%)" offset="0.441406"/><stop stop-opacity="1" stop-color="rgb(49.517822%, 55.596924%, 49.128723%)" offset="0.445312"/><stop stop-opacity="1" stop-color="rgb(49.778748%, 55.89447%, 49.359131%)" offset="0.449219"/><stop stop-opacity="1" stop-color="rgb(50.041199%, 56.193542%, 49.589539%)" offset="0.453125"/><stop stop-opacity="1" stop-color="rgb(50.302124%, 56.492615%, 49.819946%)" offset="0.457031"/><stop stop-opacity="1" stop-color="rgb(50.563049%, 56.791687%, 50.05188%)" offset="0.460938"/><stop stop-opacity="1" stop-color="rgb(50.823975%, 57.090759%, 50.282288%)" offset="0.464844"/><stop stop-opacity="1" stop-color="rgb(51.0849%, 57.389832%, 50.512695%)" offset="0.46875"/><stop stop-opacity="1" stop-color="rgb(51.345825%, 57.687378%, 50.743103%)" offset="0.472656"/><stop stop-opacity="1" stop-color="rgb(51.60675%, 57.98645%, 50.975037%)" offset="0.476562"/><stop stop-opacity="1" stop-color="rgb(51.867676%, 58.285522%, 51.205444%)" offset="0.480469"/><stop stop-opacity="1" stop-color="rgb(52.128601%, 58.584595%, 51.435852%)" offset="0.484375"/><stop stop-opacity="1" stop-color="rgb(52.389526%, 58.883667%, 51.66626%)" offset="0.488281"/><stop stop-opacity="1" stop-color="rgb(52.650452%, 59.182739%, 51.898193%)" offset="0.492187"/><stop stop-opacity="1" stop-color="rgb(52.911377%, 59.481812%, 52.128601%)" offset="0.496094"/><stop stop-opacity="1" stop-color="rgb(53.172302%, 59.780884%, 52.359009%)" offset="0.5"/><stop stop-opacity="1" stop-color="rgb(53.433228%, 60.07843%, 52.589417%)" offset="0.503906"/><stop stop-opacity="1" stop-color="rgb(53.694153%, 60.377502%, 52.82135%)" offset="0.507813"/><stop stop-opacity="1" stop-color="rgb(53.955078%, 60.676575%, 53.051758%)" offset="0.511719"/><stop stop-opacity="1" stop-color="rgb(54.216003%, 60.975647%, 53.282166%)" offset="0.515625"/><stop stop-opacity="1" stop-color="rgb(54.476929%, 61.274719%, 53.512573%)" offset="0.519531"/><stop stop-opacity="1" stop-color="rgb(54.737854%, 61.573792%, 53.742981%)" offset="0.523438"/><stop stop-opacity="1" stop-color="rgb(54.998779%, 61.872864%, 53.973389%)" offset="0.527344"/><stop stop-opacity="1" stop-color="rgb(55.259705%, 62.171936%, 54.205322%)" offset="0.53125"/><stop stop-opacity="1" stop-color="rgb(55.52063%, 62.469482%, 54.43573%)" offset="0.535156"/><stop stop-opacity="1" stop-color="rgb(55.783081%, 62.768555%, 54.666138%)" offset="0.539062"/><stop stop-opacity="1" stop-color="rgb(56.044006%, 63.067627%, 54.896545%)" offset="0.542969"/><stop stop-opacity="1" stop-color="rgb(56.304932%, 63.366699%, 55.128479%)" offset="0.546875"/><stop stop-opacity="1" stop-color="rgb(56.565857%, 63.665771%, 55.358887%)" offset="0.550781"/><stop stop-opacity="1" stop-color="rgb(56.826782%, 63.964844%, 55.589294%)" offset="0.554688"/><stop stop-opacity="1" stop-color="rgb(57.087708%, 64.26239%, 55.819702%)" offset="0.558594"/><stop stop-opacity="1" stop-color="rgb(57.348633%, 64.561462%, 56.051636%)" offset="0.5625"/><stop stop-opacity="1" stop-color="rgb(57.609558%, 64.860535%, 56.282043%)" offset="0.566406"/><stop stop-opacity="1" stop-color="rgb(57.870483%, 65.159607%, 56.512451%)" offset="0.570312"/><stop stop-opacity="1" stop-color="rgb(58.131409%, 65.458679%, 56.742859%)" offset="0.574219"/><stop stop-opacity="1" stop-color="rgb(58.392334%, 65.757751%, 56.974792%)" offset="0.578125"/><stop stop-opacity="1" stop-color="rgb(58.653259%, 66.056824%, 57.2052%)" offset="0.582031"/><stop stop-opacity="1" stop-color="rgb(58.914185%, 66.355896%, 57.435608%)" offset="0.585938"/><stop stop-opacity="1" stop-color="rgb(59.17511%, 66.653442%, 57.666016%)" offset="0.589844"/><stop stop-opacity="1" stop-color="rgb(59.436035%, 66.952515%, 57.896423%)" offset="0.59375"/><stop stop-opacity="1" stop-color="rgb(59.69696%, 67.251587%, 58.126831%)" offset="0.597656"/><stop stop-opacity="1" stop-color="rgb(59.957886%, 67.550659%, 58.358765%)" offset="0.601563"/><stop stop-opacity="1" stop-color="rgb(60.218811%, 67.849731%, 58.589172%)" offset="0.605469"/><stop stop-opacity="1" stop-color="rgb(60.479736%, 68.148804%, 58.81958%)" offset="0.609375"/><stop stop-opacity="1" stop-color="rgb(60.740662%, 68.44635%, 59.049988%)" offset="0.613281"/><stop stop-opacity="1" stop-color="rgb(61.001587%, 68.745422%, 59.281921%)" offset="0.617188"/><stop stop-opacity="1" stop-color="rgb(61.262512%, 69.044495%, 59.512329%)" offset="0.621094"/><stop stop-opacity="1" stop-color="rgb(61.524963%, 69.343567%, 59.742737%)" offset="0.625"/><stop stop-opacity="1" stop-color="rgb(61.785889%, 69.642639%, 59.973145%)" offset="0.628906"/><stop stop-opacity="1" stop-color="rgb(62.046814%, 69.941711%, 60.205078%)" offset="0.632812"/><stop stop-opacity="1" stop-color="rgb(62.307739%, 70.240784%, 60.435486%)" offset="0.636719"/><stop stop-opacity="1" stop-color="rgb(62.568665%, 70.539856%, 60.665894%)" offset="0.640625"/><stop stop-opacity="1" stop-color="rgb(62.82959%, 70.837402%, 60.896301%)" offset="0.644531"/><stop stop-opacity="1" stop-color="rgb(63.090515%, 71.136475%, 61.128235%)" offset="0.648438"/><stop stop-opacity="1" stop-color="rgb(63.35144%, 71.435547%, 61.358643%)" offset="0.652344"/><stop stop-opacity="1" stop-color="rgb(63.612366%, 71.734619%, 61.58905%)" offset="0.65625"/><stop stop-opacity="1" stop-color="rgb(63.873291%, 72.033691%, 61.819458%)" offset="0.660156"/><stop stop-opacity="1" stop-color="rgb(64.134216%, 72.332764%, 62.049866%)" offset="0.664062"/><stop stop-opacity="1" stop-color="rgb(64.395142%, 72.63031%, 62.280273%)" offset="0.667969"/><stop stop-opacity="1" stop-color="rgb(64.656067%, 72.929382%, 62.512207%)" offset="0.671875"/><stop stop-opacity="1" stop-color="rgb(64.916992%, 73.228455%, 62.742615%)" offset="0.675781"/><stop stop-opacity="1" stop-color="rgb(65.177917%, 73.527527%, 62.973022%)" offset="0.679688"/><stop stop-opacity="1" stop-color="rgb(65.438843%, 73.826599%, 63.20343%)" offset="0.683594"/><stop stop-opacity="1" stop-color="rgb(65.699768%, 74.125671%, 63.435364%)" offset="0.6875"/><stop stop-opacity="1" stop-color="rgb(65.960693%, 74.424744%, 63.665771%)" offset="0.691406"/><stop stop-opacity="1" stop-color="rgb(66.221619%, 74.723816%, 63.896179%)" offset="0.695313"/><stop stop-opacity="1" stop-color="rgb(66.482544%, 75.021362%, 64.126587%)" offset="0.699219"/><stop stop-opacity="1" stop-color="rgb(66.743469%, 75.320435%, 64.358521%)" offset="0.703125"/><stop stop-opacity="1" stop-color="rgb(67.004395%, 75.619507%, 64.588928%)" offset="0.707031"/><stop stop-opacity="1" stop-color="rgb(67.26532%, 75.918579%, 64.819336%)" offset="0.710938"/><stop stop-opacity="1" stop-color="rgb(67.526245%, 76.217651%, 65.049744%)" offset="0.714844"/><stop stop-opacity="1" stop-color="rgb(67.788696%, 76.516724%, 65.281677%)" offset="0.71875"/><stop stop-opacity="1" stop-color="rgb(68.049622%, 76.81427%, 65.512085%)" offset="0.722656"/><stop stop-opacity="1" stop-color="rgb(68.310547%, 77.113342%, 65.742493%)" offset="0.726563"/><stop stop-opacity="1" stop-color="rgb(68.571472%, 77.412415%, 65.9729%)" offset="0.730469"/><stop stop-opacity="1" stop-color="rgb(68.832397%, 77.711487%, 66.204834%)" offset="0.734375"/><stop stop-opacity="1" stop-color="rgb(69.093323%, 78.010559%, 66.435242%)" offset="0.738281"/><stop stop-opacity="1" stop-color="rgb(69.354248%, 78.309631%, 66.665649%)" offset="0.742188"/><stop stop-opacity="1" stop-color="rgb(69.577026%, 78.564453%, 66.862488%)" offset="0.746094"/><stop stop-opacity="1" stop-color="rgb(69.799805%, 78.819275%, 67.059326%)" offset="0.75"/><stop stop-opacity="1" stop-color="rgb(69.799805%, 78.819275%, 67.059326%)" offset="1"/></linearGradient><clipPath id="24d630d452"><path d="M 40.425781 154 L 335 154 L 335 336 L 40.425781 336 Z M 40.425781 154 " clip-rule="nonzero"/></clipPath><clipPath id="a7e8114de1"><rect x="0" width="375" y="0" height="375"/></clipPath></defs><g transform="matrix(1, 0, 0, 1, 0, 0)"><g clip-path="url(#a7e8114de1)"><g clip-path="url(#c508d61ba7)"><g clip-path="url(#5decb6d513)"><path fill="url(#4678679d30)" d="M 0 374.511719 L 374.511719 374.511719 L 374.511719 0 L 0 0 Z M 0 374.511719 " fill-rule="nonzero"/></g></g><g clip-path="url(#24d630d452)"><path fill="#f2e6bd" d="M 271.53125 172.875 L 303.691406 156.597656 C 305.285156 155.769531 306.960938 155.164062 308.71875 154.78125 C 310.476562 154.394531 312.25 154.242188 314.046875 154.324219 C 315.84375 154.410156 317.597656 154.722656 319.3125 155.269531 C 321.027344 155.8125 322.640625 156.570312 324.152344 157.542969 C 325.695312 158.488281 327.089844 159.617188 328.339844 160.921875 C 329.589844 162.226562 330.65625 163.671875 331.539062 165.25 C 332.417969 166.828125 333.085938 168.496094 333.539062 170.246094 C 333.988281 171.996094 334.214844 173.777344 334.210938 175.585938 L 334.210938 257.195312 C 334.210938 258.902344 334.09375 260.601562 333.863281 262.292969 C 333.628906 263.984375 333.28125 265.65625 332.816406 267.296875 C 332.351562 268.941406 331.777344 270.546875 331.09375 272.113281 C 330.410156 273.675781 329.617188 275.1875 328.726562 276.640625 C 327.832031 278.097656 326.84375 279.484375 325.757812 280.804688 C 324.671875 282.125 323.5 283.363281 322.242188 284.519531 C 320.988281 285.675781 319.65625 286.742188 318.253906 287.714844 C 316.851562 288.6875 315.386719 289.5625 313.863281 290.332031 L 228.148438 333.613281 C 225.191406 335.027344 222.074219 335.734375 218.796875 335.734375 C 216.828125 335.757812 214.898438 335.496094 213.007812 334.957031 C 211.117188 334.414062 209.34375 333.613281 207.6875 332.550781 C 206.160156 331.597656 204.773438 330.464844 203.535156 329.15625 C 202.296875 327.84375 201.242188 326.402344 200.375 324.820312 C 199.503906 323.242188 198.847656 321.578125 198.402344 319.832031 C 197.957031 318.085938 197.738281 316.3125 197.746094 314.507812 L 197.746094 233.015625 C 197.734375 231.304688 197.84375 229.597656 198.066406 227.898438 C 198.292969 226.199219 198.636719 224.523438 199.09375 222.871094 C 199.554688 221.222656 200.125 219.609375 200.808594 218.039062 C 201.492188 216.464844 202.28125 214.949219 203.175781 213.484375 C 204.070312 212.023438 205.0625 210.632812 206.148438 209.308594 C 207.238281 207.984375 208.414062 206.742188 209.675781 205.582031 C 210.9375 204.417969 212.273438 203.351562 213.679688 202.378906 C 215.089844 201.402344 216.5625 200.53125 218.09375 199.761719 L 249.550781 183.957031 Z M 156.46875 199.761719 L 70.875 156.597656 C 69.273438 155.785156 67.59375 155.191406 65.839844 154.8125 C 64.085938 154.433594 62.3125 154.285156 60.515625 154.371094 C 58.722656 154.453125 56.972656 154.761719 55.257812 155.300781 C 53.546875 155.835938 51.929688 156.585938 50.410156 157.542969 C 48.867188 158.484375 47.46875 159.609375 46.214844 160.914062 C 44.960938 162.21875 43.890625 163.660156 43.011719 165.242188 C 42.128906 166.824219 41.464844 168.488281 41.015625 170.242188 C 40.5625 171.996094 40.34375 173.777344 40.355469 175.585938 L 40.355469 257.195312 C 40.347656 258.90625 40.460938 260.613281 40.691406 262.308594 C 40.921875 264.007812 41.265625 265.679688 41.726562 267.328125 C 42.1875 268.980469 42.761719 270.589844 43.445312 272.160156 C 44.128906 273.730469 44.917969 275.246094 45.8125 276.707031 C 46.707031 278.167969 47.699219 279.558594 48.785156 280.882812 C 49.871094 282.207031 51.042969 283.449219 52.300781 284.613281 C 53.558594 285.773438 54.894531 286.84375 56.300781 287.820312 C 57.707031 288.800781 59.171875 289.675781 60.699219 290.449219 L 146.414062 333.613281 C 149.371094 335.027344 152.488281 335.734375 155.769531 335.734375 C 157.71875 335.765625 159.628906 335.507812 161.503906 334.964844 C 163.375 334.421875 165.128906 333.617188 166.761719 332.550781 C 168.296875 331.605469 169.6875 330.480469 170.933594 329.171875 C 172.179688 327.867188 173.234375 326.421875 174.105469 324.839844 C 174.976562 323.257812 175.632812 321.59375 176.070312 319.84375 C 176.511719 318.089844 176.71875 316.3125 176.699219 314.507812 L 176.699219 232.898438 C 176.71875 231.191406 176.621094 229.492188 176.402344 227.796875 C 176.183594 226.101562 175.847656 224.433594 175.394531 222.785156 C 174.941406 221.136719 174.375 219.53125 173.695312 217.964844 C 173.019531 216.394531 172.234375 214.882812 171.34375 213.425781 C 170.453125 211.964844 169.46875 210.578125 168.382812 209.257812 C 167.296875 207.9375 166.128906 206.699219 164.867188 205.546875 C 163.609375 204.390625 162.277344 203.328125 160.871094 202.359375 C 159.464844 201.390625 157.996094 200.523438 156.46875 199.761719 Z M 156.46875 199.761719 " fill-opacity="1" fill-rule="nonzero"/></g><path fill="#1b6e63" d="M 68.652344 113.4375 C 68.644531 114.390625 68.699219 115.34375 68.820312 116.292969 C 68.9375 117.242188 69.121094 118.179688 69.367188 119.101562 C 69.613281 120.027344 69.917969 120.933594 70.285156 121.816406 C 70.652344 122.699219 71.074219 123.554688 71.554688 124.378906 C 72.039062 125.207031 72.570312 125.996094 73.160156 126.75 C 73.746094 127.503906 74.382812 128.21875 75.066406 128.886719 C 75.75 129.554688 76.472656 130.175781 77.238281 130.75 C 78.007812 131.320312 78.808594 131.839844 79.644531 132.304688 L 171.789062 182.308594 C 172.96875 182.960938 174.183594 183.539062 175.4375 184.039062 C 176.691406 184.539062 177.972656 184.960938 179.28125 185.296875 C 180.585938 185.636719 181.910156 185.890625 183.25 186.0625 C 184.585938 186.230469 185.933594 186.316406 187.28125 186.316406 C 188.632812 186.316406 189.976562 186.230469 191.316406 186.0625 C 192.652344 185.890625 193.976562 185.636719 195.285156 185.296875 C 196.589844 184.960938 197.871094 184.539062 199.125 184.039062 C 200.378906 183.539062 201.59375 182.960938 202.773438 182.308594 L 247.796875 157.777344 L 269.429688 146.222656 L 269.429688 146.101562 L 294.917969 132.304688 C 296.589844 131.351562 298.105469 130.199219 299.46875 128.84375 C 300.835938 127.492188 302 125.980469 302.964844 124.320312 C 303.929688 122.65625 304.660156 120.898438 305.160156 119.042969 C 305.660156 117.1875 305.910156 115.296875 305.910156 113.375 C 305.910156 111.453125 305.660156 109.566406 305.160156 107.710938 C 304.660156 105.851562 303.929688 104.09375 302.964844 102.433594 C 302 100.769531 300.835938 99.261719 299.46875 97.90625 C 298.105469 96.554688 296.589844 95.402344 294.917969 94.449219 L 202.777344 44.445312 C 201.59375 43.796875 200.375 43.222656 199.121094 42.726562 C 197.867188 42.226562 196.585938 41.8125 195.28125 41.476562 C 193.972656 41.140625 192.652344 40.886719 191.3125 40.71875 C 189.972656 40.550781 188.628906 40.464844 187.28125 40.464844 C 185.933594 40.464844 184.589844 40.550781 183.25 40.71875 C 181.914062 40.886719 180.589844 41.140625 179.285156 41.476562 C 177.976562 41.8125 176.695312 42.226562 175.441406 42.726562 C 174.1875 43.222656 172.96875 43.796875 171.789062 44.445312 L 131.445312 66.261719 L 108.527344 78.882812 L 79.644531 94.449219 C 78.804688 94.917969 78.003906 95.445312 77.238281 96.023438 C 76.46875 96.597656 75.746094 97.226562 75.0625 97.902344 C 74.378906 98.574219 73.742188 99.292969 73.15625 100.054688 C 72.566406 100.8125 72.035156 101.609375 71.550781 102.441406 C 71.070312 103.269531 70.648438 104.128906 70.28125 105.019531 C 69.914062 105.90625 69.609375 106.8125 69.363281 107.742188 C 69.117188 108.671875 68.9375 109.613281 68.816406 110.566406 C 68.699219 111.519531 68.644531 112.476562 68.652344 113.4375 Z M 68.652344 113.4375 " fill-opacity="1" fill-rule="evenodd"/></g></g></svg>