<svg xmlns="http://www.w3.org/2000/svg" xmlns:xlink="http://www.w3.org/1999/xlink" width="500" zoomAndPan="magnify" viewBox="0 0 375 374.999991" height="500" preserveAspectRatio="xMidYMid meet" version="1.0"><defs><clipPath id="94ad7b1be7"><path d="M 6.433594 146 L 368.683594 146 L 368.683594 371 L 6.433594 371 Z M 6.433594 146 " clip-rule="nonzero"/></clipPath></defs><g clip-path="url(#94ad7b1be7)"><path fill="#282b31" d="M 290.96875 169.507812 L 330.558594 149.472656 C 331.539062 148.964844 332.546875 148.523438 333.582031 148.148438 C 334.617188 147.773438 335.675781 147.46875 336.75 147.234375 C 337.828125 146.996094 338.914062 146.832031 340.015625 146.738281 C 341.113281 146.644531 342.210938 146.625 343.3125 146.675781 C 344.414062 146.726562 345.507812 146.847656 346.589844 147.042969 C 347.675781 147.234375 348.742188 147.5 349.792969 147.835938 C 350.84375 148.167969 351.867188 148.570312 352.867188 149.039062 C 353.863281 149.507812 354.824219 150.039062 355.753906 150.632812 C 356.699219 151.214844 357.601562 151.851562 358.464844 152.550781 C 359.328125 153.246094 360.140625 153.996094 360.910156 154.796875 C 361.675781 155.597656 362.390625 156.441406 363.046875 157.332031 C 363.707031 158.226562 364.304688 159.15625 364.84375 160.125 C 365.386719 161.09375 365.859375 162.089844 366.273438 163.121094 C 366.683594 164.148438 367.03125 165.203125 367.308594 166.273438 C 367.585938 167.347656 367.792969 168.433594 367.929688 169.535156 C 368.070312 170.636719 368.136719 171.738281 368.136719 172.847656 L 368.136719 273.324219 C 368.136719 275.425781 367.996094 277.519531 367.707031 279.601562 C 367.421875 281.6875 366.992188 283.738281 366.421875 285.765625 C 365.851562 287.789062 365.140625 289.761719 364.300781 291.691406 C 363.457031 293.617188 362.484375 295.476562 361.382812 297.269531 C 360.28125 299.058594 359.0625 300.769531 357.726562 302.390625 C 356.390625 304.015625 354.949219 305.539062 353.402344 306.964844 C 351.855469 308.390625 350.21875 309.703125 348.492188 310.902344 C 346.761719 312.097656 344.960938 313.175781 343.085938 314.125 L 237.558594 367.410156 C 233.914062 369.152344 230.078125 370.023438 226.039062 370.023438 C 223.617188 370.050781 221.242188 369.730469 218.914062 369.0625 C 216.585938 368.394531 214.402344 367.410156 212.363281 366.105469 C 210.480469 364.925781 208.777344 363.53125 207.253906 361.917969 C 205.726562 360.308594 204.429688 358.53125 203.359375 356.585938 C 202.289062 354.640625 201.480469 352.59375 200.929688 350.445312 C 200.382812 348.292969 200.113281 346.109375 200.125 343.890625 L 200.125 243.558594 C 200.109375 241.449219 200.242188 239.347656 200.519531 237.253906 C 200.796875 235.164062 201.21875 233.101562 201.785156 231.066406 C 202.351562 229.035156 203.054688 227.050781 203.894531 225.113281 C 204.734375 223.179688 205.707031 221.3125 206.808594 219.511719 C 207.910156 217.710938 209.128906 215.996094 210.46875 214.367188 C 211.808594 212.734375 213.257812 211.207031 214.808594 209.777344 C 216.363281 208.347656 218.007812 207.035156 219.742188 205.835938 C 221.480469 204.636719 223.289062 203.5625 225.175781 202.613281 L 263.902344 183.15625 Z M 149.304688 202.613281 L 43.921875 149.472656 C 42.941406 148.972656 41.929688 148.539062 40.894531 148.171875 C 39.855469 147.804688 38.800781 147.503906 37.722656 147.273438 C 36.648438 147.042969 35.5625 146.878906 34.464844 146.789062 C 33.367188 146.699219 32.269531 146.679688 31.171875 146.726562 C 30.070312 146.777344 28.980469 146.898438 27.894531 147.09375 C 26.8125 147.285156 25.746094 147.542969 24.695312 147.875 C 23.644531 148.203125 22.621094 148.597656 21.621094 149.0625 C 20.625 149.523438 19.65625 150.046875 18.726562 150.632812 C 17.78125 151.210938 16.875 151.847656 16.011719 152.542969 C 15.144531 153.238281 14.328125 153.984375 13.558594 154.785156 C 12.792969 155.585938 12.078125 156.429688 11.417969 157.324219 C 10.757812 158.214844 10.15625 159.144531 9.617188 160.113281 C 9.078125 161.082031 8.601562 162.082031 8.191406 163.113281 C 7.777344 164.144531 7.433594 165.195312 7.160156 166.269531 C 6.882812 167.34375 6.675781 168.433594 6.539062 169.53125 C 6.40625 170.632812 6.339844 171.738281 6.347656 172.847656 L 6.347656 273.324219 C 6.339844 275.433594 6.476562 277.53125 6.761719 279.621094 C 7.042969 281.710938 7.46875 283.769531 8.039062 285.800781 C 8.605469 287.832031 9.3125 289.816406 10.152344 291.746094 C 10.996094 293.679688 11.96875 295.546875 13.066406 297.347656 C 14.167969 299.144531 15.386719 300.859375 16.726562 302.488281 C 18.0625 304.121094 19.507812 305.652344 21.054688 307.082031 C 22.605469 308.511719 24.246094 309.828125 25.976562 311.03125 C 27.707031 312.234375 29.515625 313.316406 31.394531 314.269531 L 136.925781 367.410156 C 140.566406 369.152344 144.40625 370.023438 148.441406 370.023438 C 150.84375 370.058594 153.195312 369.742188 155.5 369.074219 C 157.808594 368.40625 159.964844 367.417969 161.972656 366.105469 C 162.917969 365.523438 163.816406 364.886719 164.675781 364.1875 C 165.539062 363.492188 166.347656 362.742188 167.113281 361.941406 C 167.875 361.140625 168.582031 360.292969 169.238281 359.402344 C 169.890625 358.507812 170.484375 357.578125 171.019531 356.609375 C 171.554688 355.640625 172.023438 354.640625 172.429688 353.609375 C 172.832031 352.582031 173.171875 351.527344 173.4375 350.457031 C 173.707031 349.382812 173.90625 348.296875 174.039062 347.195312 C 174.167969 346.097656 174.222656 344.996094 174.210938 343.890625 L 174.210938 243.414062 C 174.234375 241.308594 174.113281 239.214844 173.84375 237.128906 C 173.574219 235.042969 173.160156 232.988281 172.601562 230.960938 C 172.046875 228.933594 171.351562 226.953125 170.515625 225.023438 C 169.679688 223.09375 168.714844 221.230469 167.621094 219.433594 C 166.523438 217.640625 165.308594 215.929688 163.972656 214.304688 C 162.636719 212.679688 161.195312 211.15625 159.648438 209.734375 C 158.097656 208.3125 156.457031 207.003906 154.726562 205.8125 C 152.992188 204.621094 151.1875 203.554688 149.304688 202.613281 Z M 149.304688 202.613281 " fill-opacity="1" fill-rule="nonzero"/></g><path fill="#1b6e63" d="M 41.1875 96.332031 C 41.175781 97.507812 41.246094 98.683594 41.390625 99.851562 C 41.539062 101.019531 41.761719 102.171875 42.066406 103.308594 C 42.367188 104.449219 42.742188 105.558594 43.195312 106.648438 C 43.648438 107.734375 44.167969 108.789062 44.761719 109.804688 C 45.355469 110.824219 46.011719 111.796875 46.734375 112.726562 C 47.460938 113.652344 48.242188 114.53125 49.082031 115.355469 C 49.921875 116.179688 50.816406 116.941406 51.757812 117.648438 C 52.703125 118.351562 53.6875 118.988281 54.71875 119.5625 L 168.164062 181.125 C 169.617188 181.929688 171.117188 182.640625 172.660156 183.257812 C 174.203125 183.875 175.777344 184.390625 177.386719 184.808594 C 178.996094 185.222656 180.625 185.535156 182.273438 185.746094 C 183.921875 185.957031 185.578125 186.0625 187.242188 186.0625 C 188.902344 186.0625 190.558594 185.957031 192.207031 185.746094 C 193.855469 185.535156 195.484375 185.222656 197.09375 184.808594 C 198.703125 184.390625 200.277344 183.875 201.820312 183.257812 C 203.363281 182.640625 204.863281 181.929688 206.316406 181.125 L 261.742188 150.925781 L 288.378906 136.695312 L 288.378906 136.550781 L 319.761719 119.5625 C 320.785156 118.976562 321.765625 118.328125 322.703125 117.617188 C 323.640625 116.902344 324.527344 116.132812 325.363281 115.300781 C 326.199219 114.472656 326.980469 113.589844 327.699219 112.660156 C 328.417969 111.726562 329.074219 110.75 329.667969 109.730469 C 330.257812 108.714844 330.78125 107.660156 331.234375 106.574219 C 331.6875 105.484375 332.066406 104.371094 332.371094 103.234375 C 332.679688 102.097656 332.910156 100.945312 333.0625 99.777344 C 333.21875 98.609375 333.296875 97.4375 333.296875 96.257812 C 333.296875 95.082031 333.21875 93.90625 333.0625 92.738281 C 332.910156 91.570312 332.679688 90.417969 332.371094 89.28125 C 332.066406 88.144531 331.6875 87.03125 331.234375 85.945312 C 330.78125 84.855469 330.257812 83.804688 329.667969 82.785156 C 329.074219 81.765625 328.417969 80.789062 327.699219 79.859375 C 326.980469 78.925781 326.199219 78.042969 325.363281 77.214844 C 324.527344 76.382812 323.640625 75.613281 322.703125 74.898438 C 321.765625 74.1875 320.785156 73.539062 319.761719 72.953125 L 206.316406 11.390625 C 204.859375 10.589844 203.359375 9.886719 201.816406 9.273438 C 200.273438 8.660156 198.695312 8.148438 197.089844 7.734375 C 195.480469 7.324219 193.851562 7.011719 192.203125 6.804688 C 190.554688 6.59375 188.902344 6.492188 187.242188 6.492188 C 185.578125 6.492188 183.925781 6.59375 182.277344 6.804688 C 180.628906 7.011719 179 7.324219 177.394531 7.734375 C 175.785156 8.148438 174.207031 8.660156 172.664062 9.273438 C 171.121094 9.886719 169.621094 10.589844 168.164062 11.390625 L 118.496094 38.253906 L 90.277344 53.789062 L 54.71875 72.953125 C 53.6875 73.535156 52.699219 74.179688 51.757812 74.890625 C 50.8125 75.601562 49.917969 76.375 49.078125 77.207031 C 48.234375 78.035156 47.453125 78.917969 46.730469 79.855469 C 46.007812 80.789062 45.347656 81.769531 44.757812 82.792969 C 44.164062 83.816406 43.640625 84.875 43.191406 85.96875 C 42.742188 87.0625 42.363281 88.179688 42.0625 89.324219 C 41.761719 90.464844 41.535156 91.625 41.390625 92.796875 C 41.242188 93.972656 41.175781 95.148438 41.1875 96.332031 Z M 41.1875 96.332031 " fill-opacity="1" fill-rule="evenodd"/></svg>