<svg xmlns="http://www.w3.org/2000/svg" xmlns:xlink="http://www.w3.org/1999/xlink" width="500" zoomAndPan="magnify" viewBox="0 0 375 374.999991" height="500" preserveAspectRatio="xMidYMid meet" version="1.0"><defs><clipPath id="ff458ca58d"><path d="M 8.035156 147 L 367 147 L 367 369 L 8.035156 369 Z M 8.035156 147 " clip-rule="nonzero"/></clipPath></defs><g clip-path="url(#ff458ca58d)"><path fill="#f2e6bd" d="M 290.054688 169.667969 L 329.296875 149.808594 C 330.265625 149.304688 331.265625 148.867188 332.292969 148.496094 C 333.320312 148.125 334.367188 147.820312 335.433594 147.589844 C 336.5 147.355469 337.578125 147.191406 338.667969 147.097656 C 339.753906 147.003906 340.84375 146.984375 341.9375 147.035156 C 343.027344 147.085938 344.109375 147.207031 345.1875 147.398438 C 346.261719 147.589844 347.320312 147.851562 348.359375 148.183594 C 349.402344 148.515625 350.417969 148.914062 351.40625 149.378906 C 352.394531 149.84375 353.347656 150.371094 354.269531 150.957031 C 355.203125 151.535156 356.097656 152.167969 356.953125 152.859375 C 357.808594 153.546875 358.617188 154.289062 359.378906 155.082031 C 360.136719 155.878906 360.84375 156.714844 361.496094 157.601562 C 362.148438 158.484375 362.742188 159.40625 363.277344 160.367188 C 363.8125 161.324219 364.285156 162.316406 364.695312 163.335938 C 365.101562 164.355469 365.445312 165.398438 365.71875 166.460938 C 365.996094 167.527344 366.199219 168.601562 366.335938 169.695312 C 366.476562 170.785156 366.542969 171.878906 366.539062 172.976562 L 366.539062 272.5625 C 366.542969 274.648438 366.398438 276.722656 366.117188 278.789062 C 365.832031 280.851562 365.40625 282.890625 364.839844 284.894531 C 364.273438 286.902344 363.574219 288.859375 362.738281 290.769531 C 361.902344 292.679688 360.9375 294.519531 359.847656 296.296875 C 358.757812 298.074219 357.550781 299.765625 356.222656 301.375 C 354.898438 302.984375 353.472656 304.496094 351.9375 305.910156 C 350.40625 307.320312 348.78125 308.621094 347.070312 309.808594 C 345.355469 311 343.570312 312.0625 341.710938 313.003906 L 237.113281 365.820312 C 233.507812 367.546875 229.699219 368.410156 225.699219 368.410156 C 223.300781 368.4375 220.945312 368.117188 218.636719 367.457031 C 216.332031 366.796875 214.164062 365.820312 212.144531 364.523438 C 210.277344 363.359375 208.589844 361.976562 207.078125 360.378906 C 205.566406 358.78125 204.28125 357.019531 203.21875 355.089844 C 202.15625 353.164062 201.355469 351.136719 200.8125 349.003906 C 200.269531 346.871094 200.003906 344.707031 200.015625 342.507812 L 200.015625 243.0625 C 200 240.96875 200.128906 238.886719 200.40625 236.816406 C 200.679688 234.742188 201.097656 232.695312 201.660156 230.683594 C 202.21875 228.667969 202.917969 226.699219 203.75 224.78125 C 204.582031 222.863281 205.546875 221.011719 206.636719 219.226562 C 207.730469 217.445312 208.941406 215.742188 210.269531 214.128906 C 211.597656 212.511719 213.03125 210.996094 214.570312 209.582031 C 216.109375 208.164062 217.738281 206.863281 219.460938 205.671875 C 221.179688 204.484375 222.972656 203.417969 224.84375 202.480469 L 263.226562 183.195312 Z M 149.644531 202.480469 L 45.191406 149.808594 C 44.21875 149.3125 43.21875 148.882812 42.1875 148.519531 C 41.160156 148.15625 40.113281 147.855469 39.046875 147.628906 C 37.980469 147.398438 36.90625 147.238281 35.816406 147.148438 C 34.730469 147.058594 33.640625 147.039062 32.550781 147.089844 C 31.460938 147.136719 30.382812 147.257812 29.308594 147.449219 C 28.234375 147.636719 27.175781 147.898438 26.132812 148.222656 C 25.09375 148.550781 24.078125 148.941406 23.089844 149.398438 C 22.097656 149.859375 21.140625 150.378906 20.21875 150.957031 C 19.28125 151.53125 18.382812 152.164062 17.523438 152.851562 C 16.667969 153.539062 15.859375 154.28125 15.097656 155.074219 C 14.335938 155.867188 13.628906 156.707031 12.972656 157.589844 C 12.320312 158.472656 11.726562 159.394531 11.191406 160.355469 C 10.652344 161.316406 10.183594 162.308594 9.773438 163.328125 C 9.367188 164.347656 9.027344 165.390625 8.753906 166.457031 C 8.480469 167.523438 8.273438 168.601562 8.140625 169.691406 C 8.003906 170.78125 7.941406 171.878906 7.945312 172.976562 L 7.945312 272.5625 C 7.941406 274.65625 8.078125 276.734375 8.355469 278.804688 C 8.636719 280.878906 9.058594 282.917969 9.625 284.933594 C 10.1875 286.945312 10.886719 288.910156 11.722656 290.828125 C 12.554688 292.742188 13.519531 294.59375 14.609375 296.375 C 15.699219 298.15625 16.910156 299.859375 18.234375 301.472656 C 19.558594 303.089844 20.992188 304.605469 22.527344 306.023438 C 24.0625 307.441406 25.6875 308.746094 27.40625 309.941406 C 29.121094 311.132812 30.910156 312.203125 32.777344 313.148438 L 137.371094 365.820312 C 140.980469 367.546875 144.785156 368.410156 148.785156 368.410156 C 151.167969 368.445312 153.5 368.132812 155.785156 367.46875 C 158.070312 366.808594 160.207031 365.828125 162.199219 364.523438 C 163.132812 363.949219 164.027344 363.316406 164.878906 362.625 C 165.730469 361.9375 166.535156 361.195312 167.292969 360.398438 C 168.050781 359.605469 168.75 358.765625 169.398438 357.882812 C 170.046875 356.996094 170.636719 356.074219 171.164062 355.113281 C 171.695312 354.152344 172.160156 353.164062 172.5625 352.140625 C 172.964844 351.121094 173.296875 350.078125 173.5625 349.015625 C 173.832031 347.953125 174.027344 346.875 174.15625 345.785156 C 174.285156 344.695312 174.34375 343.601562 174.328125 342.507812 L 174.328125 242.917969 C 174.351562 240.835938 174.230469 238.757812 173.964844 236.691406 C 173.699219 234.625 173.289062 232.585938 172.734375 230.574219 C 172.183594 228.566406 171.492188 226.605469 170.664062 224.691406 C 169.839844 222.777344 168.882812 220.933594 167.796875 219.152344 C 166.710938 217.375 165.503906 215.679688 164.179688 214.070312 C 162.859375 212.457031 161.429688 210.949219 159.894531 209.539062 C 158.359375 208.128906 156.730469 206.832031 155.015625 205.648438 C 153.296875 204.46875 151.507812 203.410156 149.644531 202.480469 Z M 149.644531 202.480469 " fill-opacity="1" fill-rule="nonzero"/></g><path fill="#1b6e63" d="M 42.480469 97.136719 C 42.46875 98.304688 42.535156 99.464844 42.683594 100.625 C 42.828125 101.78125 43.050781 102.925781 43.351562 104.050781 C 43.648438 105.179688 44.023438 106.285156 44.472656 107.363281 C 44.917969 108.441406 45.4375 109.484375 46.023438 110.492188 C 46.609375 111.5 47.261719 112.464844 47.980469 113.386719 C 48.695312 114.304688 49.472656 115.175781 50.304688 115.992188 C 51.140625 116.808594 52.023438 117.566406 52.960938 118.265625 C 53.894531 118.960938 54.871094 119.59375 55.890625 120.160156 L 168.335938 181.179688 C 169.777344 181.980469 171.261719 182.683594 172.792969 183.296875 C 174.320312 183.90625 175.882812 184.417969 177.476562 184.832031 C 179.074219 185.242188 180.6875 185.554688 182.320312 185.761719 C 183.957031 185.96875 185.597656 186.074219 187.242188 186.074219 C 188.890625 186.074219 190.53125 185.96875 192.164062 185.761719 C 193.800781 185.554688 195.414062 185.242188 197.007812 184.832031 C 198.601562 184.417969 200.164062 183.90625 201.695312 183.296875 C 203.226562 182.683594 204.710938 181.980469 206.148438 181.179688 L 261.085938 151.246094 L 287.488281 137.144531 L 287.488281 137 L 318.59375 120.160156 C 319.609375 119.582031 320.582031 118.941406 321.507812 118.234375 C 322.4375 117.527344 323.316406 116.761719 324.148438 115.9375 C 324.976562 115.117188 325.746094 114.242188 326.460938 113.320312 C 327.175781 112.394531 327.824219 111.429688 328.410156 110.417969 C 328.996094 109.410156 329.515625 108.363281 329.964844 107.289062 C 330.414062 106.210938 330.789062 105.105469 331.09375 103.980469 C 331.394531 102.851562 331.625 101.710938 331.777344 100.550781 C 331.929688 99.394531 332.007812 98.230469 332.007812 97.0625 C 332.007812 95.894531 331.929688 94.734375 331.777344 93.574219 C 331.625 92.417969 331.394531 91.277344 331.09375 90.148438 C 330.789062 89.019531 330.414062 87.917969 329.964844 86.839844 C 329.515625 85.761719 328.996094 84.71875 328.410156 83.707031 C 327.824219 82.699219 327.175781 81.730469 326.460938 80.808594 C 325.746094 79.882812 324.976562 79.011719 324.148438 78.1875 C 323.316406 77.367188 322.4375 76.601562 321.507812 75.894531 C 320.582031 75.1875 319.609375 74.542969 318.59375 73.964844 L 206.152344 12.949219 C 204.707031 12.152344 203.222656 11.453125 201.691406 10.847656 C 200.160156 10.242188 198.597656 9.734375 197.003906 9.324219 C 195.410156 8.914062 193.796875 8.605469 192.164062 8.398438 C 190.527344 8.191406 188.890625 8.089844 187.242188 8.089844 C 185.597656 8.089844 183.957031 8.191406 182.324219 8.398438 C 180.691406 8.605469 179.078125 8.914062 177.484375 9.324219 C 175.886719 9.734375 174.324219 10.242188 172.796875 10.847656 C 171.265625 11.453125 169.777344 12.152344 168.335938 12.949219 L 119.105469 39.570312 L 91.136719 54.96875 L 55.890625 73.964844 C 54.871094 74.539062 53.890625 75.179688 52.957031 75.886719 C 52.019531 76.589844 51.132812 77.355469 50.300781 78.179688 C 49.46875 79.003906 48.691406 79.878906 47.972656 80.804688 C 47.257812 81.730469 46.605469 82.703125 46.019531 83.71875 C 45.429688 84.730469 44.914062 85.78125 44.46875 86.863281 C 44.019531 87.949219 43.648438 89.054688 43.347656 90.1875 C 43.050781 91.324219 42.828125 92.472656 42.679688 93.632812 C 42.535156 94.796875 42.46875 95.964844 42.480469 97.136719 Z M 42.480469 97.136719 " fill-opacity="1" fill-rule="evenodd"/></svg>